<?xml version="1.0" encoding="UTF-8"?>
<svg version="1.1" xmlns="http://www.w3.org/2000/svg" width="512" height="512">
<path d="M0 0 C44.53222634 45.53860434 60.2281766 128.08834757 59.85742188 189.66967773 C59.43576447 214.48210754 56.98352851 243.29472603 38.94921875 261.94140625 C28.79499643 271.20820073 18.02878696 274.41490673 4.43359375 274.2734375 C-27.27525756 272.51725497 -55.93999482 251.32727184 -78.375 230.5625 C-105.46589076 205.58713872 -135.37138721 195.80796675 -171.96484375 196.88330078 C-200.15168989 198.36448242 -224.86003219 205.13836326 -245.375 225.0625 C-248.00452485 227.43967122 -250.68544592 229.75363648 -253.375 232.0625 C-254.220625 232.79855469 -255.06625 233.53460938 -255.9375 234.29296875 C-280.16845861 255.00122006 -310.16907015 276.34871979 -343.42041016 274.24267578 C-354.30877972 273.23897646 -364.06007164 267.32379428 -371.4375 259.42578125 C-393.02339698 233.09620933 -391.69059202 197.35706852 -388.58984375 165.32421875 C-382.55356694 105.16745444 -370.45433657 31.85113579 -320.890625 -8.984375 C-302.30655992 -22.70986097 -279.72929812 -28.46666758 -256.87663269 -25.62705994 C-254.34334393 -25.21514088 -251.82487081 -24.75520144 -249.3046875 -24.26953125 C-248.36651688 -24.09366486 -247.42834625 -23.91779846 -246.46174622 -23.73660278 C-234.93640883 -21.53428334 -223.50051869 -18.924023 -212.0625 -16.3125 C-209.87835292 -15.81727719 -207.69410839 -15.32248398 -205.50976562 -14.828125 C-201.5211197 -13.92501462 -197.53309114 -13.01927249 -193.5456543 -12.11083984 C-192.67547165 -11.91404633 -191.805289 -11.71725281 -190.90873718 -11.51449585 C-189.23709121 -11.13381991 -187.56695465 -10.74644564 -185.89851379 -10.35195923 C-179.75000938 -8.9210836 -174.00006112 -8.57049564 -167.6875 -8.5625 C-166.23633789 -8.52576172 -166.23633789 -8.52576172 -164.75585938 -8.48828125 C-145.72108429 -8.41585978 -126.62710562 -14.13477901 -108.25 -18.5625 C-82.97724799 -24.63369705 -82.97724799 -24.63369705 -73.375 -25.9375 C-72.25867188 -26.09734375 -71.14234375 -26.2571875 -69.9921875 -26.421875 C-42.54307037 -29.08076384 -19.74913503 -18.67550537 0 0 Z M-318 11.125 C-361.53148921 57.2731361 -375.00826947 139.77847373 -373.28344727 200.81762695 C-372.50203319 217.57329211 -369.72546885 236.40374383 -357.9375 249.1875 C-351.11483962 255.27257547 -343.60921318 257.46321465 -334.6171875 257.33203125 C-306.14669987 254.96520758 -280.01461073 233.09967041 -259.98706055 214.34082031 C-236.97230703 192.81486336 -208.75750843 181.31780034 -177.375 180.0625 C-175.42400391 179.98322266 -175.42400391 179.98322266 -173.43359375 179.90234375 C-129.68542694 178.7653306 -98.16856043 190.61153807 -65.5625 218.9375 C-48.336435 233.83847051 -30.14710435 247.68077062 -8.375 255.0625 C-7.62089844 255.32675781 -6.86679687 255.59101563 -6.08984375 255.86328125 C1.56060838 258.1725553 10.92868825 258.22653254 18.40625 255.2734375 C28.88974891 249.55180957 34.93890884 240.07868098 38.2890625 228.83349609 C54.01499806 169.67461667 34.732256 87.08100142 5.0859375 34.4296875 C0.93004971 27.39282251 -3.68246141 21.08076426 -9.3671875 15.17578125 C-11.375 13.0625 -11.375 13.0625 -13.3125 10.54296875 C-22.61703218 -0.64714098 -36.91177271 -5.76588679 -50.6875 -8.625 C-71.67364768 -10.40348709 -91.8077114 -5.65631323 -112 -0.4375 C-145.56515694 8.20512805 -174.7459699 10.81014479 -208.67431641 2.02050781 C-214.35014904 0.55118684 -220.04928448 -0.81850469 -225.75 -2.1875 C-227.28684448 -2.55838745 -227.28684448 -2.55838745 -228.85473633 -2.93676758 C-261.07249809 -10.64976764 -291.94820903 -13.11892647 -318 11.125 Z " fill="#B000FF" transform="translate(421.375,131.9375)"/>
<path d="M0 0 C1.80984375 -0.02416992 1.80984375 -0.02416992 3.65625 -0.04882812 C11.02664177 -0.05287779 16.86908599 -0.04687329 22.5859375 5.06640625 C23.28589844 5.96166016 23.28589844 5.96166016 24 6.875 C24.48210937 7.47441406 24.96421875 8.07382813 25.4609375 8.69140625 C28.2412417 12.56330639 27.73589308 16.35132548 27.6875 20.9375 C27.68298828 21.73929688 27.67847656 22.54109375 27.67382812 23.3671875 C27.66203168 25.34899006 27.64409605 27.33075433 27.625 29.3125 C28.71039063 29.27769531 29.79578125 29.24289063 30.9140625 29.20703125 C32.35935942 29.17887612 33.80467321 29.15157781 35.25 29.125 C35.96285156 29.09986328 36.67570312 29.07472656 37.41015625 29.04882812 C43.10133789 28.97050911 47.17110859 30.04895237 51.48828125 34.03125 C51.96652344 34.6190625 52.44476563 35.206875 52.9375 35.8125 C53.67419922 36.69421875 53.67419922 36.69421875 54.42578125 37.59375 C57.89284402 42.56283018 56.92445778 49.12258832 56.97509766 54.91674805 C56.99159427 56.29680316 57.01880154 57.67677506 57.05712891 59.05639648 C57.44912908 73.2655505 57.44912908 73.2655505 53.1550293 78.80493164 C49.24149266 82.66101728 45.75942451 84.47728156 40.22265625 84.703125 C38.71043763 84.6769394 37.19844609 84.62982579 35.6875 84.5625 C34.90826172 84.54445313 34.12902344 84.52640625 33.32617188 84.5078125 C31.42523869 84.46116383 29.52494831 84.38943829 27.625 84.3125 C27.67140625 85.45847656 27.7178125 86.60445313 27.765625 87.78515625 C27.80316909 89.31507791 27.83956641 90.84502801 27.875 92.375 C27.90851563 93.12716797 27.94203125 93.87933594 27.9765625 94.65429688 C28.07589885 100.39097085 26.93892457 103.60637013 23.625 108.3125 C16.67022961 113.70599541 10.90987342 113.55676048 2.39306641 113.60766602 C0.39592451 113.62482027 -1.60092929 113.66871525 -3.59765625 113.71289062 C-10.71499391 113.75976266 -15.67569845 113.77708917 -21.375 109.3125 C-26.58512764 103.82074384 -27.68458828 98.91902886 -27.5 91.5 C-27.49097656 90.80712891 -27.48195313 90.11425781 -27.47265625 89.40039062 C-27.44926157 87.70427605 -27.41339641 86.00834129 -27.375 84.3125 C-29.00308594 84.36470703 -29.00308594 84.36470703 -30.6640625 84.41796875 C-32.10935942 84.44612388 -33.55467321 84.47342219 -35 84.5 C-35.71285156 84.52513672 -36.42570312 84.55027344 -37.16015625 84.57617188 C-41.99116625 84.64265366 -45.17583614 83.95091269 -49.375 81.3125 C-56.64950991 73.87266032 -56.7163622 66.84300537 -56.6875 56.9375 C-56.70361328 55.83921875 -56.71972656 54.7409375 -56.73632812 53.609375 C-56.74033662 46.92320209 -56.72659163 40.08904403 -52.02905273 34.79589844 C-46.5714143 29.94737532 -41.65899061 29.0109366 -34.5625 29.1875 C-33.52319336 29.20103516 -33.52319336 29.20103516 -32.46289062 29.21484375 C-30.76677605 29.23823843 -29.07084129 29.27410359 -27.375 29.3125 C-27.42140625 28.3225 -27.4678125 27.3325 -27.515625 26.3125 C-27.98507066 12.10502385 -27.98507066 12.10502385 -23.375 6.3125 C-16.43011259 -0.45431337 -9.17960733 -0.02436202 0 0 Z M-10.375 18.3125 C-10.50823751 19.98368442 -10.5783973 21.659994 -10.62109375 23.3359375 C-10.65396484 24.356875 -10.68683594 25.3778125 -10.72070312 26.4296875 C-10.78167807 28.59364935 -10.83899693 30.75771745 -10.89257812 32.921875 C-10.92673828 33.94539063 -10.96089844 34.96890625 -10.99609375 36.0234375 C-11.0211499 36.96493652 -11.04620605 37.90643555 -11.07202148 38.87646484 C-11.375 41.3125 -11.375 41.3125 -13.375 44.3125 C-16.2968607 45.28645357 -18.39311745 45.49097145 -21.4453125 45.59375 C-22.42371094 45.63113281 -23.40210938 45.66851562 -24.41015625 45.70703125 C-26.47785551 45.77761011 -28.54556394 45.84792061 -30.61328125 45.91796875 C-31.58910156 45.95535156 -32.56492187 45.99273437 -33.5703125 46.03125 C-34.91633545 46.07668945 -34.91633545 46.07668945 -36.28955078 46.12304688 C-38.362951 46.08703999 -38.362951 46.08703999 -39.375 47.3125 C-39.46169432 48.8012186 -39.48203494 50.293945 -39.47265625 51.78515625 C-39.46943359 52.68427734 -39.46621094 53.58339844 -39.46289062 54.50976562 C-39.45451172 55.45529297 -39.44613281 56.40082031 -39.4375 57.375 C-39.43298828 58.32439453 -39.42847656 59.27378906 -39.42382812 60.25195312 C-39.4120011 62.60553065 -39.39552025 64.95898477 -39.375 67.3125 C-38.73473877 67.32708252 -38.09447754 67.34166504 -37.43481445 67.35668945 C-34.51845169 67.43141382 -31.60320313 67.52799293 -28.6875 67.625 C-27.68009766 67.64755859 -26.67269531 67.67011719 -25.63476562 67.69335938 C-16.21875299 68.03519482 -16.21875299 68.03519482 -12.375 71.3125 C-11.11661443 73.82927113 -11.16681027 75.72543288 -11.05859375 78.5390625 C-11.01669922 79.5703125 -10.97480469 80.6015625 -10.93164062 81.6640625 C-10.89232422 82.74429688 -10.85300781 83.82453125 -10.8125 84.9375 C-10.76931641 86.02546875 -10.72613281 87.1134375 -10.68164062 88.234375 C-10.57535573 90.9269257 -10.47465496 93.61969576 -10.375 96.3125 C-3.445 96.3125 3.485 96.3125 10.625 96.3125 C10.83437961 89.67205279 10.83437961 89.67205279 11.01293945 83.03076172 C11.21899236 77.81777365 11.56811886 73.74171021 14.625 69.3125 C17.5445043 68.3393319 19.67944951 68.1195454 22.73046875 67.99609375 C23.71337891 67.95419922 24.69628906 67.91230469 25.70898438 67.86914062 C26.73314453 67.82982422 27.75730469 67.79050781 28.8125 67.75 C29.84826172 67.70681641 30.88402344 67.66363281 31.95117188 67.61914062 C34.50895702 67.51305737 37.06696098 67.41227414 39.625 67.3125 C39.625 60.3825 39.625 53.4525 39.625 46.3125 C37.20414063 46.25642578 37.20414063 46.25642578 34.734375 46.19921875 C32.61456002 46.13356076 30.4947694 46.06711337 28.375 46 C27.31152344 45.97744141 26.24804688 45.95488281 25.15234375 45.93164062 C24.12753906 45.89619141 23.10273438 45.86074219 22.046875 45.82421875 C21.10424805 45.79803467 20.16162109 45.77185059 19.19042969 45.74487305 C16.16922274 45.23568409 14.78787755 44.46833135 12.625 42.3125 C11.48960405 39.39562187 11.44132223 36.43776364 11.30859375 33.328125 C11.26669922 32.39355469 11.22480469 31.45898438 11.18164062 30.49609375 C11.14232422 29.52800781 11.10300781 28.55992187 11.0625 27.5625 C11.01931641 26.57894531 10.97613281 25.59539062 10.93164062 24.58203125 C10.82577948 22.15898725 10.72369829 19.7358446 10.625 17.3125 C7.31251813 17.28361854 4.00006833 17.26574201 0.6875 17.25 C-0.73079102 17.23743164 -0.73079102 17.23743164 -2.17773438 17.22460938 C-3.07685547 17.22138672 -3.97597656 17.21816406 -4.90234375 17.21484375 C-5.73499756 17.20960693 -6.56765137 17.20437012 -7.42553711 17.19897461 C-9.38016798 17.09606708 -9.38016798 17.09606708 -10.375 18.3125 Z " fill="#9A00FF" transform="translate(155.375,170.6875)"/>
<path d="M0 0 C5.93006324 5.73031374 8.98518886 13.1896275 9.4375 21.375 C9.17001962 28.3173316 6.53657703 34.55955413 2.875 40.375 C-3.6764416 46.35675103 -11.12612123 49.2413695 -20 49 C-28.0905075 48.23268065 -34.11404245 44.88595755 -39.8125 39.1875 C-44.86965311 31.81850547 -46.03325815 24.90898137 -45 16 C-43.15358743 8.93201209 -40.0638001 2.50498901 -33.66796875 -1.4375 C-22.27166772 -7.45173983 -10.81551051 -7.52789419 0 0 Z M-26 15 C-28.4915904 18.7373856 -28.45793285 20.57331583 -28 25 C-25.96818095 28.65727429 -24.45709627 29.7968461 -20.625 31.5 C-16.23055093 32.10613091 -14.59883515 31.53554295 -11 29 C-8.40151979 25.98241008 -8 24.50411384 -8 20.5 C-9.2050405 16.28235825 -10.5144106 14.63355644 -14 12 C-19.3126789 10.07839274 -21.75253684 11.52480287 -26 15 Z " fill="#CE00FF" transform="translate(414,206)"/>
<path d="M0 0 C7.08239384 5.1979712 10.61009327 10.97946981 12.1875 19.60546875 C13.01331551 27.31308016 10.84176209 34.6847962 6.375 40.98046875 C1.33174052 47.14169215 -4.42470309 50.05840014 -12.3515625 50.86328125 C-20.95876483 51.22696586 -28.23880437 49.31783922 -34.6875 43.41796875 C-40.99734359 36.34736388 -42.5683701 29.45659638 -42.25390625 20.04296875 C-41.19930581 11.83015114 -37.27120695 6.07073124 -30.828125 1.01171875 C-21.65620635 -5.38729426 -9.71860677 -5.70648457 0 0 Z M-23.8125 17.60546875 C-25.42097182 20.82241239 -25.42559149 24.12684097 -24.8125 27.60546875 C-21.86673033 31.24892071 -19.69355815 33.39646229 -15 33.91796875 C-11.03551233 33.52929349 -9.60091168 32.39388043 -6.8125 29.60546875 C-4.79092462 26.94066484 -4.8125 25.57589815 -4.8125 22.16796875 C-6.11529478 17.52676236 -7.72836574 16.10132857 -11.8125 13.60546875 C-17.29317094 12.74009965 -19.91372662 13.70669537 -23.8125 17.60546875 Z " fill="#C400FF" transform="translate(364.8125,250.39453125)"/>
<path d="M0 0 C6.82990031 5.34564354 10.90932386 11.27459085 12 20 C12.65824953 28.39268156 10.72113989 35.41438496 5.3125 41.875 C-0.63884304 48.06702235 -6.70054832 50.47005483 -15.125 51.3125 C-23.09192822 50.67000579 -30.51327913 47.87862951 -36 42 C-41.3808741 33.68676945 -42.82906798 26.91427126 -42 17 C-39.88526377 9.21914983 -35.43943298 3.21648111 -28.4375 -0.8125 C-19.15987648 -5.7809327 -9.08211541 -5.28925808 0 0 Z M-22 16 C-24.56092293 18.47261524 -24.97138496 19.80684849 -25.5 23.375 C-24.85781049 28.03087393 -23.44819947 29.85164397 -20 33 C-16.24804008 34.35709188 -14.57460634 34.20280224 -10.8125 32.875 C-7.62910538 30.75273692 -6.35197151 29.57874812 -5 26 C-4.8123684 23.1457254 -5.07558567 20.71085919 -6 18 C-8.53558716 15.17463145 -10.39347734 14.18953833 -14 13.0625 C-17.68440807 12.9857415 -19.12150353 13.74388114 -22 16 Z " fill="#C400FF" transform="translate(365,158)"/>
<path d="M0 0 C5.90935361 5.22511267 9.28894535 11.91681943 9.9921875 19.8359375 C10.02198574 28.09005003 7.51732904 34.84741346 2 41 C-4.87905557 46.93811267 -11.48433165 49.35931276 -20.5 48.875 C-29.53448492 47.75347773 -34.35945393 44.1524882 -40.3359375 37.4140625 C-45.16513137 30.40833055 -44.80559472 22.17466644 -44 14 C-41.86800884 6.50332411 -37.31247336 1.40584876 -31 -3 C-20.81537599 -8.33480305 -9.23685579 -6.1898101 0 0 Z M-25.8125 15.75 C-27.57098729 19.08187066 -27.51262487 21.28346973 -27 25 C-24.6879749 28.67203986 -23.17059045 30.57659494 -19.0625 32.0625 C-15.21551981 31.9839902 -13.19592014 31.13061342 -10 29 C-7.40151979 25.98241008 -7 24.50411384 -7 20.5 C-8.2050405 16.28235825 -9.5144106 14.63355644 -13 12 C-18.73190369 10.08936544 -21.63195343 11.71361021 -25.8125 15.75 Z " fill="#BA00FF" transform="translate(321,206)"/>
</svg>
